<svg xmlns="http://www.w3.org/2000/svg" version="1.1" xmlns:xlink="http://www.w3.org/1999/xlink" xmlns:svgjs="http://svgjs.dev/svgjs" width="1500" height="1500" viewBox="0 0 1500 1500"><rect width="1500" height="1500" fill="#ffffff"></rect><g transform="matrix(0.6666666666666666,0,0,0.6666666666666666,249.85778443113782,249.85778443113765)"><svg viewBox="0 0 334 334" data-background-color="#ffffff" preserveAspectRatio="xMidYMid meet" height="1500" width="1500" xmlns="http://www.w3.org/2000/svg" xmlns:xlink="http://www.w3.org/1999/xlink"><g id="tight-bounds" transform="matrix(1,0,0,1,0.04749999999998522,0.04750000000001364)"><svg viewBox="0 0 333.90454557049503 333.90454557049503" height="333.90454557049503" width="333.90454557049503"><g><svg></svg></g><g><svg viewBox="0 0 333.90454557049503 333.90454557049503" height="333.90454557049503" width="333.90454557049503"><g><path d="M0 166.952c0-92.205 74.747-166.952 166.952-166.952 92.205 0 166.952 74.747 166.953 166.952 0 92.205-74.747 166.952-166.953 166.953-92.205 0-166.952-74.747-166.952-166.953zM166.952 330.191c90.155 0 163.239-73.085 163.239-163.239 0-90.155-73.085-163.239-163.239-163.239-90.155 0-163.239 73.085-163.239 163.239 0 90.155 73.085 163.239 163.239 163.239z" data-fill-palette-color="tertiary" fill="#000000" stroke="transparent"></path><ellipse rx="160.27418187383762" ry="160.27418187383762" cx="166.95227278524752" cy="166.95227278524752" fill="#000000" stroke="transparent" stroke-width="0" fill-opacity="1" data-fill-palette-color="tertiary"></ellipse></g><g transform="matrix(1,0,0,1,70.19200550513258,71.17305217166896)"><svg viewBox="0 0 193.52053456022986 191.55844122715712" height="191.55844122715712" width="193.52053456022986"><g><svg viewBox="0 0 193.52053456022986 191.55844122715712" height="191.55844122715712" width="193.52053456022986"><g><svg viewBox="0 0 213.1584412271571 210.99724031186193" height="191.55844122715712" width="193.52053456022986"><g transform="matrix(1,0,0,1,0,126.91208654183778)"><svg viewBox="0 0 213.1584412271571 84.08515377002415" height="84.08515377002415" width="213.1584412271571"><g id="textblocktransform"><svg viewBox="0 0 213.1584412271571 84.08515377002415" height="84.08515377002415" width="213.1584412271571" id="textblock"><g><svg viewBox="0 0 213.1584412271571 45.35151405337437" height="45.35151405337437" width="213.1584412271571"><g transform="matrix(1,0,0,1,0,0)"><svg width="213.1584412271571" viewBox="2.2 -39.5 246.81 52.510000000000005" height="45.35151405337437" data-palette-color="#ffffff"><path d="M31.69-4.49L31.69 0 2.22 0 2.22-4.49 2.2-4.49 20.58-30.66 2.22-30.66 2.22-35.16 31.69-35.16 31.69-30.66 13.31-4.49 31.69-4.49ZM45.68-35.01L45.68-35.01Q45.68-34.08 45.32-33.25 44.97-32.42 44.36-31.81 43.75-31.2 42.92-30.85 42.09-30.49 41.16-30.49L41.16-30.49Q40.23-30.49 39.41-30.85 38.6-31.2 37.99-31.81 37.38-32.42 37.02-33.25 36.67-34.08 36.67-35.01L36.67-35.01Q36.67-35.94 37.02-36.76 37.38-37.57 37.99-38.18 38.6-38.79 39.41-39.15 40.23-39.5 41.16-39.5L41.16-39.5Q42.09-39.5 42.92-39.15 43.75-38.79 44.36-38.18 44.97-37.57 45.32-36.76 45.68-35.94 45.68-35.01ZM45.31-28.17L45.31 0 37.03 0 37.03-28.17 45.31-28.17ZM71.75-28.2L77.46-28.2 67.21-3.39Q65.45 0.85 63.29 5.02 61.13 9.18 58.61 13.01L58.61 13.01 55.39 11.06Q56 9.96 56.83 8.52 57.66 7.08 58.47 5.54 59.27 4 59.96 2.5 60.64 1 61.01-0.24L61.01-0.24 48.68-28.2 56.93-28.2 65.3-9.13 71.75-28.2ZM110.03-14.16L110.03-14.16Q110.03-11.96 109.44-10.03 108.85-8.11 107.82-6.47 106.78-4.83 105.31-3.53 103.85-2.22 102.1-1.32 100.36-0.42 98.37 0.07 96.38 0.56 94.28 0.56L94.28 0.56Q92.18 0.56 90.2 0.07 88.22-0.42 86.48-1.32 84.73-2.22 83.27-3.53 81.8-4.83 80.77-6.47 79.73-8.11 79.14-10.05 78.56-11.99 78.56-14.16L78.56-14.16Q78.56-16.33 79.14-18.27 79.73-20.21 80.77-21.85 81.8-23.49 83.27-24.79 84.73-26.1 86.48-27 88.22-27.91 90.2-28.39 92.18-28.88 94.28-28.88L94.28-28.88Q96.38-28.88 98.37-28.39 100.36-27.91 102.1-27 103.85-26.1 105.31-24.79 106.78-23.49 107.82-21.85 108.85-20.21 109.44-18.27 110.03-16.33 110.03-14.16ZM101.63-14.16L101.63-14.16Q101.63-15.33 101.49-16.64 101.36-17.94 101.04-19.2 100.72-20.46 100.18-21.62 99.63-22.78 98.82-23.65 98.01-24.51 96.89-25.04 95.77-25.56 94.28-25.56L94.28-25.56Q92.86-25.56 91.76-25.02 90.67-24.49 89.85-23.6 89.03-22.71 88.48-21.53 87.93-20.36 87.59-19.1 87.25-17.85 87.1-16.56 86.96-15.28 86.96-14.16L86.96-14.16Q86.96-13.04 87.1-11.76 87.25-10.47 87.59-9.2 87.93-7.93 88.48-6.77 89.03-5.62 89.85-4.72 90.67-3.83 91.76-3.3 92.86-2.76 94.28-2.76L94.28-2.76Q95.74-2.76 96.87-3.28 97.99-3.81 98.81-4.69 99.63-5.57 100.16-6.71 100.7-7.86 101.03-9.13 101.36-10.4 101.49-11.69 101.63-12.99 101.63-14.16ZM144.57-10.74L144.57-10.74Q144.57-8.47 144-6.74 143.42-5 142.39-3.74 141.35-2.47 139.93-1.61 138.52-0.76 136.84-0.24 135.17 0.27 133.3 0.49 131.44 0.71 129.51 0.71L129.51 0.71Q126.97 0.71 124.82 0.33 122.67-0.05 120.78-0.87 118.89-1.68 117.14-2.98 115.4-4.27 113.66-6.13L113.66-6.13 118.64-11.18Q119.33-9.5 120.52-8.07 121.72-6.64 123.15-5.62 124.57-4.59 126.11-4 127.65-3.42 129.02-3.42L129.02-3.42Q130.63-3.42 132.05-3.65 133.46-3.88 134.51-4.42 135.56-4.96 136.16-5.85 136.76-6.74 136.76-8.08L136.76-8.08Q136.76-9.11 136.29-9.84 135.83-10.57 135.09-11.1 134.34-11.62 133.39-11.99 132.44-12.35 131.45-12.61 130.46-12.87 129.51-13.07 128.55-13.28 127.82-13.5L127.82-13.5Q126.38-13.92 124.82-14.39 123.26-14.87 121.74-15.48 120.23-16.09 118.87-16.88 117.52-17.68 116.49-18.76 115.47-19.85 114.86-21.28 114.25-22.71 114.25-24.56L114.25-24.56Q114.25-26.78 114.8-28.5 115.35-30.22 116.35-31.49 117.35-32.76 118.72-33.63 120.08-34.5 121.72-35.02 123.35-35.55 125.2-35.78 127.04-36.01 128.97-36.01L128.97-36.01Q131.61-36.01 133.77-35.52 135.93-35.03 137.76-34.13 139.59-33.23 141.12-31.97 142.64-30.71 143.98-29.17L143.98-29.17 139-24.12Q138.42-25.88 137.38-27.29 136.34-28.71 135.07-29.72 133.8-30.74 132.41-31.29 131.02-31.84 129.73-31.84L129.73-31.84Q128.04-31.84 126.63-31.6 125.21-31.37 124.2-30.85 123.18-30.32 122.62-29.43 122.06-28.54 122.06-27.22L122.06-27.22Q122.06-26.17 122.48-25.44 122.89-24.71 123.59-24.19 124.28-23.68 125.16-23.35 126.04-23.02 126.98-22.78 127.92-22.53 128.84-22.35 129.75-22.17 130.51-21.95L130.51-21.95Q131.97-21.53 133.58-21.07 135.2-20.61 136.76-19.98 138.32-19.36 139.74-18.55 141.15-17.75 142.23-16.64 143.3-15.53 143.94-14.07 144.57-12.62 144.57-10.74ZM178.6-16.16L178.6-16.16Q178.6-13.31 177.9-10.21 177.21-7.1 175.96-4.13 174.72-1.15 172.99 1.48 171.25 4.1 169.18 6.01L169.18 6.01 166.08 4.32Q166.74 3.1 167.32 1.59 167.91 0.07 168.38-1.62 168.86-3.32 169.24-5.13 169.62-6.93 169.87-8.7 170.13-10.47 170.26-12.15 170.4-13.82 170.4-15.26L170.4-15.26Q170.4-16.21 170.32-17.3 170.25-18.38 170.02-19.47 169.79-20.56 169.4-21.56 169.01-22.56 168.36-23.32 167.71-24.07 166.8-24.54 165.88-25 164.64-25L164.64-25Q163.42-25 162.46-24.45 161.51-23.9 160.78-23.01 160.05-22.12 159.52-20.97 159-19.82 158.67-18.62 158.34-17.41 158.19-16.24 158.04-15.06 158.04-14.14L158.04-14.14 158.04 0 149.77 0 149.77-38.57 158.02-38.57 158.02-24.05Q159.61-26.37 161.91-27.62 164.22-28.88 167.03-28.88L167.03-28.88Q169.96-28.88 172.13-27.93 174.3-26.98 175.74-25.28 177.18-23.58 177.89-21.25 178.6-18.92 178.6-16.16ZM213.83-14.16L213.83-14.16Q213.83-11.96 213.24-10.03 212.66-8.11 211.62-6.47 210.58-4.83 209.12-3.53 207.65-2.22 205.91-1.32 204.16-0.42 202.17 0.07 200.18 0.56 198.08 0.56L198.08 0.56Q195.98 0.56 194 0.07 192.03-0.42 190.28-1.32 188.53-2.22 187.07-3.53 185.61-4.83 184.57-6.47 183.53-8.11 182.94-10.05 182.36-11.99 182.36-14.16L182.36-14.16Q182.36-16.33 182.94-18.27 183.53-20.21 184.57-21.85 185.61-23.49 187.07-24.79 188.53-26.1 190.28-27 192.03-27.91 194-28.39 195.98-28.88 198.08-28.88L198.08-28.88Q200.18-28.88 202.17-28.39 204.16-27.91 205.91-27 207.65-26.1 209.12-24.79 210.58-23.49 211.62-21.85 212.66-20.21 213.24-18.27 213.83-16.33 213.83-14.16ZM205.43-14.16L205.43-14.16Q205.43-15.33 205.3-16.64 205.16-17.94 204.84-19.2 204.53-20.46 203.98-21.62 203.43-22.78 202.62-23.65 201.82-24.51 200.69-25.04 199.57-25.56 198.08-25.56L198.08-25.56Q196.66-25.56 195.57-25.02 194.47-24.49 193.65-23.6 192.83-22.71 192.28-21.53 191.73-20.36 191.39-19.1 191.05-17.85 190.9-16.56 190.76-15.28 190.76-14.16L190.76-14.16Q190.76-13.04 190.9-11.76 191.05-10.47 191.39-9.2 191.73-7.93 192.28-6.77 192.83-5.62 193.65-4.72 194.47-3.83 195.57-3.3 196.66-2.76 198.08-2.76L198.08-2.76Q199.55-2.76 200.67-3.28 201.79-3.81 202.61-4.69 203.43-5.57 203.96-6.71 204.5-7.86 204.83-9.13 205.16-10.4 205.3-11.69 205.43-12.99 205.43-14.16ZM249.01-14.16L249.01-14.16Q249.01-11.08 248.08-8.4 247.15-5.71 245.39-3.72 243.63-1.73 241.1-0.59 238.56 0.56 235.33 0.56L235.33 0.56Q232.87 0.56 230.81-0.4 228.74-1.37 227.28-3.37L227.28-3.37 227.28 13.01 219.03 13.01 219.03-28.2 222.2-28.2 225.86-22.07Q226.4-23.61 227.34-24.87 228.28-26.12 229.51-27.01 230.74-27.91 232.22-28.39 233.7-28.88 235.33-28.88L235.33-28.88Q238.56-28.88 241.1-27.73 243.63-26.59 245.39-24.6 247.15-22.61 248.08-19.92 249.01-17.24 249.01-14.16ZM240.63-14.16L240.63-14.16Q240.63-15.23 240.52-16.44 240.41-17.65 240.14-18.85 239.88-20.04 239.4-21.14 238.92-22.24 238.19-23.08 237.46-23.93 236.42-24.43 235.38-24.93 234.02-24.93L234.02-24.93Q232.6-24.93 231.56-24.44 230.52-23.95 229.78-23.11 229.04-22.27 228.56-21.18 228.08-20.09 227.81-18.9 227.55-17.7 227.44-16.48 227.33-15.26 227.33-14.16L227.33-14.16Q227.33-13.18 227.47-12 227.62-10.82 227.94-9.62 228.25-8.42 228.77-7.3 229.28-6.18 230.02-5.3 230.77-4.42 231.76-3.89 232.75-3.37 234.02-3.37L234.02-3.37Q235.41-3.37 236.43-3.87 237.46-4.37 238.19-5.21 238.92-6.05 239.4-7.15 239.88-8.25 240.14-9.45 240.41-10.64 240.52-11.87 240.63-13.09 240.63-14.16Z" opacity="1" transform="matrix(1,0,0,1,0,0)" fill="#ffffff" class="wordmark-text-0" data-fill-palette-color="quaternary" id="text-0"></path></svg></g></svg></g><g transform="matrix(1,0,0,1,0,56.05791808503878)"><svg viewBox="0 0 213.1584412271571 28.027235684985364" height="28.027235684985364" width="213.1584412271571"><g transform="matrix(1,0,0,1,0,0)"><svg width="213.1584412271571" viewBox="1.45 -34 363.54 47.8" height="28.027235684985364" data-palette-color="#ffffff"><path d="M8.5 0.65L8.5 0.65Q6.65 0.65 5.05 0.1 3.45-0.45 2.45-1.45 1.45-2.45 1.45-3.85L1.45-3.85Q1.45-4.6 1.83-5.28 2.2-5.95 3.05-5.95L3.05-5.95Q3.5-5.95 4-5.7L4-5.7Q4.9-5.2 6.3-4.78 7.7-4.35 9.25-4.35L9.25-4.35Q11-4.35 12.35-4.85 13.7-5.35 13.7-6.25L13.7-6.25Q13.7-6.95 12.68-7.25 11.65-7.55 9.25-7.9L9.25-7.9Q7.6-8.2 6.05-8.6 4.5-9 3.5-9.98 2.5-10.95 2.5-12.85L2.5-12.85Q2.5-14.7 3.53-16.43 4.55-18.15 6.6-19.3 8.65-20.45 11.6-20.45L11.6-20.45Q13.15-20.45 14.6-20.1 16.05-19.75 17-19.05 17.95-18.35 17.95-17.3L17.95-17.3Q17.95-16.4 17.32-15.65 16.7-14.9 15.88-14.43 15.05-13.95 14.5-13.95L14.5-13.95Q14.1-13.95 13.55-14.5L13.55-14.5Q12.7-15.2 11.68-15.48 10.65-15.75 9.65-15.75L9.65-15.75Q8.15-15.75 7.23-15.3 6.3-14.85 6.3-14.15L6.3-14.15Q6.3-13.5 7.08-13.1 7.85-12.7 9-12.53 10.15-12.35 11.2-12.2L11.2-12.2Q14.1-11.8 15.8-10.83 17.5-9.85 17.5-7.4L17.5-7.4Q17.5-5.5 16.43-3.63 15.35-1.75 13.33-0.55 11.3 0.65 8.5 0.65ZM46.16 0.55L46.16 0.55Q45.46 0.55 44.96 0.23 44.46-0.1 44.56-0.65L44.56-0.65Q45.31-4.65 45.84-8.78 46.36-12.9 46.36-17.1L46.36-17.1Q46.36-20.8 46.11-23.8 45.86-26.8 44.51-29.55L44.51-29.55Q44.26-30.1 44.11-30.5 43.96-30.9 43.96-31.25L43.96-31.25Q43.96-32.2 45.09-33.1 46.21-34 47.46-34L47.46-34Q49.21-34 49.86-31.8 50.51-29.6 50.51-25.3L50.51-25.3Q50.51-20.15 49.91-16.32 49.31-12.5 48.86-10.5L48.86-10.5 49.06-10.4Q50.06-13.05 51.49-15.35 52.91-17.65 54.81-19.05 56.71-20.45 59.21-20.45L59.21-20.45Q61.86-20.45 63.24-18.85 64.61-17.25 64.61-14.9L64.61-14.9Q64.61-13.9 64.41-12.98 64.21-12.05 63.96-11.2L63.96-11.2Q63.71-10.4 63.51-9.58 63.31-8.75 63.31-7.9L63.31-7.9Q63.31-6.35 64.06-5.38 64.81-4.4 66.06-4L66.06-4Q66.41-3.9 66.59-3.73 66.76-3.55 66.76-3.1L66.76-3.1Q66.76-2.65 66.46-1.8 66.16-0.95 65.36-0.23 64.56 0.5 63.01 0.5L63.01 0.5Q61.01 0.5 59.91-0.93 58.81-2.35 58.81-4.6L58.81-4.6Q58.81-5.7 59.04-6.85 59.26-8 59.56-9.05L59.56-9.05Q59.81-10.1 60.01-11.03 60.21-11.95 60.21-12.6L60.21-12.6Q60.21-14.9 57.81-14.9L57.81-14.9Q55.81-14.9 54.29-13.48 52.76-12.05 51.69-9.88 50.61-7.7 49.91-5.4L49.91-5.4 49.91-3.7Q49.91-1.85 48.84-0.65 47.76 0.55 46.16 0.55ZM100.17 0.65L100.17 0.65Q96.72 0.65 94.65-1.23 92.57-3.1 92.57-6.75L92.57-6.75Q92.57-8.45 93.05-10.05 93.52-11.65 94.32-13.05L94.32-13.05Q93.52-12.55 93.12-12.55L93.12-12.55Q92.52-12.55 92.3-13.23 92.07-13.9 92.07-14.55L92.07-14.55Q92.07-15.7 92.55-16.38 93.02-17.05 93.47-17.4L93.47-17.4Q94.52-18.3 96.77-19.38 99.02-20.45 102.17-20.45L102.17-20.45Q106.47-20.45 108.85-18.05 111.22-15.65 111.22-11.35L111.22-11.35Q111.22-8 109.82-5.28 108.42-2.55 105.95-0.95 103.47 0.65 100.17 0.65ZM101.72-4.45L101.72-4.45Q104.22-4.45 105.95-6.03 107.67-7.6 107.67-10.2L107.67-10.2Q107.67-12.9 105.92-14.05 104.17-15.2 101.87-15.2L101.87-15.2Q100.82-15.2 99.97-15 99.12-14.8 98.37-14.5L98.37-14.5Q97.67-13.5 97.12-12.25 96.57-11 96.57-9.5L96.57-9.5Q96.57-7 98.07-5.73 99.57-4.45 101.72-4.45ZM140.23 13.8L140.23 13.8Q138.73 13.8 137.88 12.98 137.03 12.15 137.03 10L137.03 10Q137.03 8.55 137.36 6.35 137.68 4.15 138.13 1.7L138.13 1.7Q138.48-0.25 138.81-2.4 139.13-4.55 139.36-6.63 139.58-8.7 139.58-10.35L139.58-10.35Q139.58-12.25 139.16-13.65 138.73-15.05 137.43-15.45L137.43-15.45Q136.93-15.65 136.53-15.9 136.13-16.15 136.13-16.7L136.13-16.7Q136.13-17.4 136.68-18.25 137.23-19.1 138.26-19.73 139.28-20.35 140.58-20.35L140.58-20.35Q142.28-20.35 142.93-19.18 143.58-18 143.58-16.1L143.58-16.1Q143.58-15.55 143.53-14.98 143.48-14.4 143.38-13.8L143.38-13.8Q144.83-16.6 147.21-18.53 149.58-20.45 152.58-20.45L152.58-20.45Q155.58-20.45 157.31-18.43 159.03-16.4 159.03-12.95L159.03-12.95Q159.03-10.4 158.23-7.98 157.43-5.55 155.98-3.6 154.53-1.65 152.51-0.5 150.48 0.65 147.98 0.65L147.98 0.65Q146.18 0.65 144.83 0.03 143.48-0.6 142.48-1.6L142.48-1.6Q142.28-0.3 142.11 1.55 141.93 3.4 141.93 5L141.93 5Q141.93 6.85 142.36 7.9 142.78 8.95 144.03 9.5L144.03 9.5Q144.58 9.75 144.58 10.3L144.58 10.3Q144.58 10.7 144.18 11.55 143.78 12.4 142.86 13.1 141.93 13.8 140.23 13.8ZM149.13-4.75L149.13-4.75Q151.98-4.75 153.53-6.55 155.08-8.35 155.08-10.7L155.08-10.7Q155.08-12.75 153.98-13.88 152.88-15 151.03-15L151.03-15Q149.13-15 147.68-13.88 146.23-12.75 145.21-10.95 144.18-9.15 143.53-7.1L143.53-7.1Q146.03-4.75 149.13-4.75ZM229.26 0.65L229.26 0.65Q225.76 0.65 223.78-1.48 221.81-3.6 221.81-7.4L221.81-7.4Q221.81-11.15 223.41-14.1 225.01-17.05 227.81-18.75 230.61-20.45 234.16-20.45L234.16-20.45Q236.56-20.45 237.96-19.65 239.36-18.85 239.36-17.45L239.36-17.45Q239.36-16.2 238.16-15L238.16-15Q237.71-14.55 236.98-14.18 236.26-13.8 235.86-13.8L235.86-13.8Q235.41-13.8 235.11-14.15L235.11-14.15Q234.61-14.7 233.81-15.2 233.01-15.7 231.56-15.7L231.56-15.7Q229.11-15.7 227.56-14.03 226.01-12.35 226.01-9.65L226.01-9.65Q226.01-7.2 227.41-5.7 228.81-4.2 231.11-4.2L231.11-4.2Q232.31-4.2 233.73-4.63 235.16-5.05 236.26-5.85L236.26-5.85Q236.81-6.35 237.41-6.35L237.41-6.35Q238.41-6.35 238.41-5.1L238.41-5.1Q238.41-3.45 236.76-1.95L236.76-1.95Q235.51-0.8 233.43-0.08 231.36 0.65 229.26 0.65ZM270.62 0.65L270.62 0.65Q267.62 0.65 265.79-1.23 263.97-3.1 263.97-6.6L263.97-6.6Q263.97-9.1 264.94-11.58 265.92-14.05 267.77-16.05 269.62-18.05 272.22-19.25 274.82-20.45 278.07-20.45L278.07-20.45Q281.07-20.45 283.19-19.43 285.32-18.4 285.32-16.65L285.32-16.65Q285.32-16.2 285.22-15.48 285.12-14.75 284.97-14.3L284.97-14.3Q284.82-13.9 284.54-13.58 284.27-13.25 283.82-13.25L283.82-13.25Q283.62-13.25 283.07-13.4L283.07-13.4Q282.87-12.35 282.77-11.35 282.67-10.35 282.67-9.35L282.67-9.35Q282.67-7.45 283.24-5.98 283.82-4.5 285.52-4.15L285.52-4.15Q285.97-4.05 286.24-3.85 286.52-3.65 286.52-3L286.52-3Q286.52-2.45 286.24-1.6 285.97-0.75 285.19-0.08 284.42 0.6 282.97 0.6L282.97 0.6Q281.02 0.6 279.97-0.83 278.92-2.25 278.92-4.9L278.92-4.9Q277.57-2.45 275.49-0.9 273.42 0.65 270.62 0.65ZM272.22-4.55L272.22-4.55Q274.22-4.55 275.74-5.8 277.27-7.05 278.12-8.95L278.12-8.95Q278.67-10.15 278.97-11.58 279.27-13 279.37-14.4L279.37-14.4Q278.52-14.8 277.42-15.05 276.32-15.3 275.12-15.3L275.12-15.3Q272.07-15.3 270.09-13.5 268.12-11.7 268.12-9L268.12-9Q268.12-7 269.22-5.78 270.32-4.55 272.22-4.55ZM314.93 0.55L314.93 0.55Q314.13 0.55 313.65 0.28 313.18 0 313.33-0.65L313.33-0.65Q313.88-2.8 314.25-5.03 314.63-7.25 314.63-9.3L314.63-9.3Q314.63-11.95 314.3-13.18 313.98-14.4 313.43-14.88 312.88-15.35 312.08-15.6L312.08-15.6Q311.73-15.75 311.45-16 311.18-16.25 311.18-16.7L311.18-16.7Q311.18-17.4 311.73-18.25 312.28-19.1 313.28-19.73 314.28-20.35 315.58-20.35L315.58-20.35Q317.28-20.35 317.95-19.18 318.63-18 318.63-16.1L318.63-16.1Q319.53-18.1 320.85-19.28 322.18-20.45 324.18-20.45L324.18-20.45Q325.53-20.45 326.43-19.85 327.33-19.25 327.33-17.9L327.33-17.9Q327.33-16.55 326.45-15.38 325.58-14.2 324.68-14.2L324.68-14.2Q324.53-14.2 324.33-14.25 324.13-14.3 323.98-14.5L323.98-14.5Q323.33-15.3 322.38-15.3L322.38-15.3Q320.93-15.3 319.83-13.4 318.73-11.5 318.63-8.15L318.63-8.15Q318.68-6.9 318.7-5.6 318.73-4.3 318.73-3.7L318.73-3.7Q318.73-1.85 317.7-0.65 316.68 0.55 314.93 0.55ZM358.19 0.65L358.19 0.65Q355.14 0.65 353.81-1.38 352.49-3.4 352.49-6.6L352.49-6.6Q352.49-7.75 352.61-8.85 352.74-9.95 352.89-11.05L352.89-11.05Q353.04-12.15 353.19-13.2 353.34-14.25 353.44-15.2L353.44-15.2Q352.39-14.9 351.34-14.9L351.34-14.9Q350.24-14.9 350.24-15.8L350.24-15.8Q350.24-16.75 351.09-18.13 351.94-19.5 353.21-20.85 354.49-22.2 355.76-23.13 357.04-24.05 357.94-24.05L357.94-24.05Q359.04-24.05 359.04-22.15L359.04-22.15Q359.04-21.65 358.96-21.13 358.89-20.6 358.79-20.05L358.79-20.05Q359.74-20.25 360.71-20.4 361.69-20.55 362.59-20.55L362.59-20.55Q363.74-20.55 364.36-20.15 364.99-19.75 364.99-18.6L364.99-18.6Q364.99-17.4 364.41-16.2 363.84-15 363.14-15L363.14-15Q362.99-15 362.64-15.05 362.29-15.1 361.79-15.2L361.79-15.2Q361.14-15.35 360.14-15.5 359.14-15.65 357.74-15.65L357.74-15.65Q357.39-14.1 357.11-12.48 356.84-10.85 356.84-9.55L356.84-9.55Q356.84-6.65 358.29-5.6 359.74-4.55 362.49-4.55L362.49-4.55Q363.34-4.55 363.69-4.28 364.04-4 364.04-3.3L364.04-3.3Q364.04-1.65 362.34-0.5 360.64 0.65 358.19 0.65Z" opacity="1" transform="matrix(1,0,0,1,0,0)" fill="#ffffff" class="slogan-text-1" data-fill-palette-color="quaternary" id="text-1"></path></svg></g></svg></g></svg></g></svg></g><g transform="matrix(1,0,0,1,53.318290358501045,0)"><svg viewBox="0 0 106.52186051015502 116.20568251017338" height="116.20568251017338" width="106.52186051015502"><g><svg xmlns="http://www.w3.org/2000/svg" xmlns:xlink="http://www.w3.org/1999/xlink" version="1.1" x="0" y="0" viewBox="4 -0.000013630257384019798 88 96.00001363025738" enable-background="new 0 0 96 96" xml:space="preserve" id="icon-0" width="106.52186051015502" height="116.20568251017338" class="icon-icon-0" data-fill-palette-color="quaternary"><path d="M85.884 1.328A1.99 1.99 0 0 0 84 0H11.876C11.028 0 10.272 0.536 9.988 1.336L4 18.316V32C4 35.252 5.832 38 8 38 11.308 38 14 35.308 14 32 14 30.9 14.896 30 16 30S18 30.9 18 32C18 35.308 20.692 38 24 38S30 35.308 30 32C30 30.9 30.896 30 32 30S34 30.9 34 32C34 35.308 36.692 38 40 38S46 35.308 46 32C46 30.9 46.896 30 48 30S50 30.9 50 32C50 35.308 52.691 38 56 38S62 35.308 62 32C62 30.9 62.9 30 64 30S66 30.9 66 32C66 35.308 68.691 38 72 38S78 35.308 78 32C78 30.9 78.9 30 80 30S82 30.9 82 32C82 34.764 83.309 38 87 38S92 34.764 92 32V18.456z" fill="#ffffff" data-fill-palette-color="quaternary"></path><path d="M72 41.756C68.736 41.756 65.828 40.304 64 37.868 62.172 40.296 59.264 41.94 56 41.94S49.828 40.396 48 37.964C46.172 40.396 43.268 41.984 40 41.984S33.828 40.412 32 37.984C30.172 40.412 27.268 41.992 24 41.992 22.572 41.992 21.232 41.648 20 41.108V76H76V40.78C74.764 41.376 73.428 41.756 72 41.756" fill="#ffffff" data-fill-palette-color="quaternary"></path><path d="M80 78C80 79.1 79.1 80 78 80H18C16.896 80 16 79.1 16 78V37.992C14.172 40.42 11.268 42 8 42V94C8 95.1 8.896 96 10 96H86C87.1 96 88 95.1 88 94V41.052C85.023 41.052 81.664 40.164 80 38.016z" fill="#ffffff" data-fill-palette-color="quaternary"></path></svg></g></svg></g><g></g></svg></g></svg></g></svg></g></svg></g><defs></defs></svg><rect width="333.90454557049503" height="333.90454557049503" fill="none" stroke="none" visibility="hidden"></rect></g></svg></g></svg>