<svg xmlns="http://www.w3.org/2000/svg" version="1.1" xmlns:xlink="http://www.w3.org/1999/xlink" xmlns:svgjs="http://svgjs.dev/svgjs" width="1500" height="1500" viewBox="0 0 1500 1500"><rect width="1500" height="1500" fill="#ffffff"></rect><g transform="matrix(0.6666666666666666,0,0,0.6666666666666666,249.39393939393938,577.3198553358559)"><svg viewBox="0 0 396 137" data-background-color="#ffffff" preserveAspectRatio="xMidYMid meet" height="518" width="1500" xmlns="http://www.w3.org/2000/svg" xmlns:xlink="http://www.w3.org/1999/xlink"><g id="tight-bounds" transform="matrix(1,0,0,1,0.2400000000000091,0.005346966180752588)"><svg viewBox="0 0 395.52 136.9893060676385" height="136.9893060676385" width="395.52"><g><svg viewBox="0 0 652.9658436243997 226.15629501409956" height="136.9893060676385" width="395.52"><g transform="matrix(1,0,0,1,257.4458436243997,51.64326940721033)"><svg viewBox="0 0 395.52 122.86975619967889" height="122.86975619967889" width="395.52"><g id="textblocktransform"><svg viewBox="0 0 395.52 122.86975619967889" height="122.86975619967889" width="395.52" id="textblock"><g><svg viewBox="0 0 395.52 66.2700753365444" height="66.2700753365444" width="395.52"><g transform="matrix(1,0,0,1,0,0)"><svg width="395.52" viewBox="1.9269444888919998 -35.95 220.803055511108 37" height="66.2700753365444" data-palette-color="#ff7500"><g class="wordmark-text-0" data-fill-palette-color="primary" id="text-0"><path d="M3.75-34.65Q4.5-34.65 6.5-34.75L6.5-34.75Q8.9-34.85 10.05-34.85L10.05-34.85 15.35-34.75 18.45-34.65 21.4-34.65Q25.7-34.65 26.4-34.75L26.4-34.75 26.75-34.8Q27.2-34.8 27.3-34.63 27.4-34.45 27.4-34.25 27.4-34.05 27.4-34L27.4-34Q27.4-33.95 27.43-33.02 27.45-32.1 26.95-31.4L26.95-31.4Q21.35-23.3 20.05-21.5L20.05-21.5Q16.45-16.4 13.95-13.1L13.95-13.1 9.2-6.6Q10.6-6.4 11.25-6.35L11.25-6.35Q12.8-6.15 14.85-6.15L14.85-6.15 17.7-6.2Q18.55-6.25 20.3-6.25L20.3-6.25Q21.7-6.25 25.5-6.45L25.5-6.45 28.6-6.55Q29.2-6.55 29.35-6.25 29.5-5.95 29.53-5.55 29.55-5.15 29.55-5L29.55-5 29.45-1.35 29.45-1.05Q29.45-0.55 29.35-0.45 29.25-0.35 28.75-0.3L28.75-0.3 27.75-0.2Q26.65-0.2 25 0.05L25 0.05Q24.3 0.15 22.1 0.15L22.1 0.15 18.15 0.1Q17.2 0.05 15.75 0.05L15.75 0.05 3.5 0.05Q2.4 0.05 2.15-0.28 1.9-0.6 1.93-1.03 1.95-1.45 1.95-1.6L1.95-1.6 2.05-3.55Q2.2-5 2.2-6L2.2-6Q2.2-6.4 2.55-6.9 2.9-7.4 3.55-8.1L3.55-8.1 4.35-9Q5.7-10.8 8.18-14.13 10.65-17.45 11.25-18.5L11.25-18.5Q11.85-19.6 13.7-22.03 15.55-24.45 16-25.1L16-25.1 16.6-25.9Q17.35-27 18.4-29.15L18.4-29.15 19.3-31.1Q19-31.1 18.85-31.15L18.85-31.15 17.85-31.25 12.55-31.3Q11.65-31.3 11.15-31.25L11.15-31.25 9.5-31.2Q8.8-31.2 8.6-31.25L8.6-31.25Q8.15-31.35 5.05-31.35L5.05-31.35 2.95-31.35Q2.55-31.4 2.45-31.5 2.35-31.6 2.38-31.75 2.4-31.9 2.4-32L2.4-32Q2.4-32.55 2.25-33.95L2.25-33.95Q2.2-34.45 2.48-34.58 2.75-34.7 3.15-34.68 3.55-34.65 3.75-34.65L3.75-34.65ZM36.7-35.25Q37.35-35.2 37.97-35.23 38.6-35.25 39.05-35.25L39.05-35.25Q40.15-35.25 40.65-35.2L40.65-35.2Q41.25-35.15 41.5-34.95 41.75-34.75 41.75-34.4L41.75-34.4Q41.75-34.15 41.7-33.85 41.65-33.55 41.6-33.3L41.6-33.3Q41.05-29.05 41-24.55L41-24.55Q40.95-23.25 40.95-20.55L40.95-20.55 41-14.5Q41.05-13.75 41.05-12.95L41.05-12.95 41.1-10.95Q41.2-8.35 41.2-7.1L41.2-7.1Q41.2-6.15 41.15-5.95L41.15-5.95Q41.1-5.75 41.1-4.8L41.1-4.8 41.15-2.05Q41.2-1.45 41.2-0.55L41.2-0.55Q41.25 0.1 40.82 0.28 40.4 0.45 39.7 0.4L39.7 0.4 35.15 0.4Q34.4 0.45 34.2 0.08 34-0.3 33.95-1.15L33.95-1.15Q33.85-1.5 34.05-3L34.05-3Q34.25-4.4 34.25-5.4L34.25-5.4Q34.25-5.75 34.6-12.15L34.6-12.15Q34.9-16.85 34.9-17.3L34.9-17.3 35-22.2 35.1-26.75 35.2-29.45 35.3-31.25 35.3-33.35Q35.3-35.3 36.3-35.3L36.3-35.3Q36.55-35.3 36.7-35.25L36.7-35.25ZM50.6-33.4L51.85-29.25Q52.9-25.95 54.3-22.75L54.3-22.75Q54.95-21.25 55.7-18.95L55.7-18.95Q56.5-16.55 56.5-16.55L56.5-16.55 56.9-17.8 57.65-19.95Q58.15-21.45 59.12-24.03 60.1-26.6 60.45-27.3L60.45-27.3Q61.85-31.35 62.25-33.05L62.25-33.05Q62.5-34.05 62.9-34.3 63.3-34.55 63.67-34.52 64.05-34.5 64.15-34.5L64.15-34.5 66.85-34.55Q68.1-34.55 69-34.45L69-34.45Q70.05-34.3 70.05-33.95L70.05-33.95Q70.05-33.9 69.95-33.5L69.95-33.5Q69.85-33.25 69.72-32.88 69.6-32.5 69.45-32.05L69.45-32.05Q68.25-28.5 67.9-27.7L67.9-27.7Q67.25-25.8 65.7-22L65.7-22 63.6-16.5Q62.5-13.8 60.8-9.5 59.1-5.2 58.95-4.6L58.95-4.6Q58.75-4 58.52-2.68 58.3-1.35 58.2-0.95L58.2-0.95Q58.05-0.35 57.87-0.13 57.7 0.1 57.4 0.05L57.4 0.05 54.45 0.1 50.5 0.15Q49.85 0.15 49.85-0.15L49.85-0.15Q49.85-0.3 49.92-0.43 50-0.55 50.05-0.7L50.05-0.7 51.85-5.55Q52-6.35 52.6-7.7L52.6-7.7Q52.75-8.1 52.9-8.47 53.05-8.85 53.15-9.25L53.15-9.25Q53.25-9.55 53.45-9.95 53.65-10.35 53.7-10.63 53.75-10.9 53.65-11.15L53.65-11.15Q53.65-11.15 53.1-12.7L53.1-12.7Q52.4-14.9 52.15-15.5L52.15-15.5Q51.85-16.25 51.35-17.95L51.35-17.95Q51-19.1 50.7-20L50.7-20Q50.3-21 48.9-25.05 47.5-29.1 46.85-31.2L46.85-31.2Q46.55-32.1 46.25-32.75L46.25-32.75Q45.9-33.55 45.9-33.85L45.9-33.85Q45.9-34.2 46.27-34.33 46.65-34.45 47.4-34.5L47.4-34.5Q48.15-34.55 49.9-34.45L49.9-34.45Q50.3-34.4 50.4-34.25 50.5-34.1 50.5-33.88 50.5-33.65 50.6-33.4L50.6-33.4ZM92.49-34.9Q95.49-32.9 97.32-29.5 99.14-26.1 99.87-22.88 100.59-19.65 100.59-17.8L100.59-17.8Q100.59-14.7 99.62-10.6 98.64-6.5 95.44-2.98 92.24 0.55 86.19 0.55L86.19 0.55Q77.89 0.55 74.39-9.1L74.39-9.1Q72.84-13.45 72.64-18.8L72.64-18.8Q72.64-23.2 74.49-27.18 76.34-31.15 79.37-33.55 82.39-35.95 85.59-35.95L85.59-35.95Q88.49-35.95 89.92-35.8 91.34-35.65 92.49-34.9L92.49-34.9ZM85.94-2.25Q91.24-2.25 93.84-6.68 96.44-11.1 96.44-17.8L96.44-17.8Q96.44-21.9 95.22-25.38 93.99-28.85 91.77-30.93 89.54-33 86.64-33L86.64-33Q86.39-33 85.32-33 84.24-33 83.44-32.65 82.64-32.3 81.99-31.6L81.99-31.6Q80.34-29.95 79.22-28.58 78.09-27.2 76.97-24.5 75.84-21.8 75.84-18.25L75.84-18.25Q75.84-14.05 76.87-10.43 77.89-6.8 80.14-4.53 82.39-2.25 85.94-2.25L85.94-2.25ZM115.99-35.85Q120.74-35.85 123.82-33.98 126.89-32.1 128.59-30.4L128.59-30.4Q128.79-30.2 128.79-29.95L128.79-29.95Q128.79-29.8 128.67-29.58 128.54-29.35 128.49-29.25L128.49-29.25Q128.24-28.9 127.67-28.03 127.09-27.15 126.74-26.75L126.74-26.75Q126.59-26.55 126.42-26.33 126.24-26.1 126.12-26 125.99-25.9 125.74-25.9L125.74-25.9Q125.64-25.9 125.27-26.23 124.89-26.55 124.54-26.8L124.54-26.8Q122.54-28.55 120.64-29.8 118.74-31.05 116.99-31.05L116.99-31.05Q115.59-31.05 114.69-30.43 113.79-29.8 113.79-27.6L113.79-27.6Q113.79-25.45 115.39-24.25 116.99-23.05 119.64-21.95L119.64-21.95Q119.89-21.85 122.57-20.7 125.24-19.55 127.32-16.3 129.39-13.05 129.39-8.55L129.39-8.55Q129.39-3.75 125.79-1.35 122.19 1.05 115.84 1.05L115.84 1.05Q108.64 1.05 106.69-1.73 104.74-4.5 104.64-4.6L104.64-4.6Q104.44-4.85 104.44-5.1L104.44-5.1Q104.44-5.25 104.84-5.75L104.84-5.75Q105.49-6.65 106.74-7.9L106.74-7.9Q106.94-8.1 107.14-8.1L107.14-8.1Q107.39-8.1 107.69-7.73 107.99-7.35 108.19-7.15L108.19-7.15Q111.14-4.2 114.89-4.2L114.89-4.2Q116.79-4.2 118.19-4.93 119.59-5.65 119.59-7.65L119.59-7.65Q119.59-11.1 114.14-15L114.14-15Q113.24-15.6 112.44-16L112.44-16Q110.34-17.15 108.84-18.25 107.34-19.35 106.19-21.15 105.04-22.95 105.04-25.35L105.04-25.35Q105.04-28.35 106.92-30.75 108.79-33.15 111.42-34.5 114.04-35.85 115.99-35.85L115.99-35.85ZM143.99-21.5L146.14-21.45Q147.19-21.45 148.09-21.55L148.09-21.55Q148.39-21.6 149.04-21.6L149.04-21.6Q149.74-21.6 150.09-21.55L150.09-21.55 151.24-21.45 151.39-22.95 151.54-25.35 151.64-30.25 151.74-34.1Q151.79-34.85 151.94-35.1 152.09-35.35 152.64-35.4L152.64-35.4Q153.14-35.4 155.44-35.7L155.44-35.7Q155.84-35.75 156.89-35.75L156.89-35.75Q158.49-35.75 159.54-35.6L159.54-35.6Q160.09-35.5 160.21-35.38 160.34-35.25 160.36-34.95 160.39-34.65 160.44-34.4L160.44-34.4Q160.44-33.6 160.29-31.7L160.29-31.7Q160.09-28.2 160.09-26.9L160.09-26.9Q160.09-26.25 159.79-22.75L159.79-22.75Q159.49-18.95 159.49-17.8L159.49-17.8 159.59-7.9Q159.59-2.3 159.79-1.05L159.79-1.05 159.79-0.95Q159.79-0.4 159.59-0.28 159.39-0.15 159.14-0.18 158.89-0.2 158.79-0.2L158.79-0.2Q158.39-0.3 157.79-0.3L157.79-0.3Q157.59-0.3 156.49-0.2L156.49-0.2Q155.09-0.05 151.99-0.05L151.99-0.05 151.89-0.05Q151.19-0.05 151.19-0.5L151.19-0.5Q151.19-1.45 151.16-4.25 151.14-7.05 150.99-8.35L150.99-8.35Q150.89-10.25 150.89-12.05L150.89-12.05Q150.84-12.8 150.84-14.35L150.84-14.35 149.39-14.35 147.24-14.3 146.34-14.25 145.34-14.3Q144.59-14.3 144.14-14.35L144.14-14.35 143.99-11.2Q143.84-9.45 143.84-6.65L143.84-6.65 143.84-4.1Q143.84-1.4 143.94-0.85L143.94-0.85Q144.04-0.25 143.76-0.13 143.49 0 143.11 0 142.74 0 142.59 0L142.59 0Q142.19-0.05 141.24-0.13 140.29-0.2 139.69-0.2L139.69-0.2 138.24-0.1Q137.89-0.05 135.64 0.1L135.64 0.1Q134.49 0.25 134.49-1.3L134.49-1.3 134.54-3.25 134.64-6.85Q134.64-7.95 134.69-8.9L134.69-8.9 134.74-14.7Q134.74-16.7 134.69-17.25L134.69-17.25Q134.54-18.4 134.54-20.25L134.54-20.25 134.59-23.3Q134.64-24.05 134.64-25.25L134.64-25.25Q134.64-26.65 134.94-31.05L134.94-31.05 135.09-34.5Q135.09-34.9 135.24-35.05 135.39-35.2 135.69-35.2L135.69-35.2 136.34-35.15Q136.99-35.05 138.04-35 139.09-34.95 140.09-34.95L140.09-34.95 142.39-35Q142.94-35.05 143.64-35.05L143.64-35.05 143.69-35.05Q144.09-35.05 144.09-34.5L144.09-34.5Q144.14-34.4 144.16-32.52 144.19-30.65 144.19-28.1L144.19-28.1Q144.19-26.5 144.09-23.8L144.09-23.8 143.99-21.5ZM185.14-34.9Q188.14-32.9 189.96-29.5 191.79-26.1 192.51-22.88 193.24-19.65 193.24-17.8L193.24-17.8Q193.24-14.7 192.26-10.6 191.29-6.5 188.09-2.98 184.89 0.55 178.84 0.55L178.84 0.55Q170.54 0.55 167.04-9.1L167.04-9.1Q165.49-13.45 165.29-18.8L165.29-18.8Q165.29-23.2 167.14-27.18 168.99-31.15 172.01-33.55 175.04-35.95 178.24-35.95L178.24-35.95Q181.14-35.95 182.56-35.8 183.99-35.65 185.14-34.9L185.14-34.9ZM178.59-2.25Q183.89-2.25 186.49-6.68 189.09-11.1 189.09-17.8L189.09-17.8Q189.09-21.9 187.86-25.38 186.64-28.85 184.41-30.93 182.19-33 179.29-33L179.29-33Q179.04-33 177.96-33 176.89-33 176.09-32.65 175.29-32.3 174.64-31.6L174.64-31.6Q172.99-29.95 171.86-28.58 170.74-27.2 169.61-24.5 168.49-21.8 168.49-18.25L168.49-18.25Q168.49-14.05 169.51-10.43 170.54-6.8 172.79-4.53 175.04-2.25 178.59-2.25L178.59-2.25ZM219.68-32.55Q219.88-32.3 220.81-31.2 221.73-30.1 222.23-28.75 222.73-27.4 222.73-25.85L222.73-25.85Q222.73-21.7 220.31-19.2 217.88-16.7 214.18-15.4L214.18-15.4Q210.18-14.05 205.63-14L205.63-14 205.53-8.55 205.43-1.5Q205.43 0 204.23 0L204.23 0Q203.93 0 203.63-0.05 203.33-0.1 203.13-0.1L203.13-0.1 201.23 0 199.28 0.1Q198.73 0.1 198.53-0.3 198.33-0.7 198.33-1.5L198.33-1.5Q198.33-1.75 198.36-2.45 198.38-3.15 198.38-4.55L198.38-4.55Q198.53-12.2 198.53-12.3L198.53-12.3 198.53-26Q198.53-28 198.73-30.35L198.73-30.35 198.93-33.65Q198.93-34.45 199.11-34.58 199.28-34.7 199.88-34.7L199.88-34.7Q200.28-34.7 202.28-34.9L202.28-34.9Q204.88-35.2 206.43-35.2L206.43-35.2Q210.63-35.2 212.86-35.08 215.08-34.95 216.86-34.38 218.63-33.8 219.68-32.55L219.68-32.55ZM215.48-18Q217.28-18.85 218.13-20.28 218.98-21.7 218.98-24.1L218.98-24.1Q218.98-26 218.58-28.05L218.58-28.05Q218.18-30.1 216.33-31.2 214.48-32.3 211.88-32.65L211.88-32.65Q210.53-32.85 208.68-32.85L208.68-32.85Q207.88-32.85 205.98-32.75L205.98-32.75 205.68-16.6Q207.63-16.55 209.43-16.75L209.43-16.75Q213.53-17.05 215.48-18L215.48-18Z" fill="#000000" data-fill-palette-color="primary"></path></g></svg></g></svg></g><g transform="matrix(1,0,0,1,0,81.91484964169445)"><svg viewBox="0 0 191.69036430524545 40.95490655798444" height="40.95490655798444" width="191.69036430524545"><g transform="matrix(1,0,0,1,0,0)"><svg width="191.69036430524545" viewBox="2.3 -32.75 197.03 42.1" height="40.95490655798444" data-palette-color="#ff7500"><path d="M20.05-6.15L20.05-6.15Q20.05-2.95 17.7-1.15 15.35 0.65 10.9 0.65L10.9 0.65Q7.1 0.65 4.7-0.53 2.3-1.7 2.3-3.1L2.3-3.1Q2.3-3.7 2.63-4.28 2.95-4.85 3.6-5.2L3.6-5.2Q4.95-4.25 6.75-3.45 8.55-2.65 10.85-2.65L10.85-2.65Q16.05-2.65 16.05-6.15L16.05-6.15Q16.05-7.6 15.18-8.53 14.3-9.45 12.6-9.85L12.6-9.85 8.45-10.95Q5.4-11.7 4-13.28 2.6-14.85 2.6-17.2L2.6-17.2Q2.6-19.85 4.75-21.8 6.9-23.75 11.3-23.75L11.3-23.75Q13.65-23.75 15.4-23.28 17.15-22.8 18.13-22.03 19.1-21.25 19.1-20.35L19.1-20.35Q19.1-19.7 18.78-19.2 18.45-18.7 17.9-18.45L17.9-18.45Q17.3-18.85 16.38-19.33 15.45-19.8 14.2-20.13 12.95-20.45 11.45-20.45L11.45-20.45Q9.25-20.45 7.9-19.6 6.55-18.75 6.55-17.2L6.55-17.2Q6.55-16.1 7.33-15.28 8.1-14.45 9.8-14.05L9.8-14.05 13.25-13.2Q16.65-12.4 18.35-10.68 20.05-8.95 20.05-6.15ZM46.15-9.95L42.15-9.95 42.15-14.55Q42.15-17.55 40.47-19 38.8-20.45 36.15-20.45L36.15-20.45Q34.2-20.45 32.52-19.7 30.85-18.95 29.7-17.9L29.7-17.9 28.95-21.15Q30.15-22 32.12-22.88 34.1-23.75 36.7-23.75L36.7-23.75Q40.85-23.75 43.5-21.5 46.15-19.25 46.15-14.65L46.15-14.65 46.15-9.95ZM26.2-13.2L30.2-13.2 30.2-0.1Q29.95 0 29.45 0.13 28.95 0.25 28.35 0.25L28.35 0.25Q27.3 0.25 26.75-0.18 26.2-0.6 26.2-1.55L26.2-1.55 26.2-13.2ZM42.15-13.15L46.15-13.1 46.15-0.1Q45.9 0 45.37 0.13 44.85 0.25 44.3 0.25L44.3 0.25Q43.2 0.25 42.67-0.18 42.15-0.6 42.15-1.55L42.15-1.55 42.15-13.15ZM30.2-11.25L26.2-11.25 26.2-32.4Q26.45-32.5 26.97-32.63 27.5-32.75 28.1-32.75L28.1-32.75Q29.15-32.75 29.67-32.33 30.2-31.9 30.2-30.95L30.2-30.95 30.2-11.25ZM75.09-11.55L75.09-11.55Q75.09-7.85 73.7-5.1 72.3-2.35 69.75-0.85 67.2 0.65 63.75 0.65L63.75 0.65Q60.3 0.65 57.72-0.85 55.15-2.35 53.75-5.1 52.35-7.85 52.35-11.55L52.35-11.55Q52.35-15.3 53.77-18.03 55.2-20.75 57.77-22.25 60.35-23.75 63.75-23.75L63.75-23.75Q67.15-23.75 69.7-22.25 72.25-20.75 73.67-18.03 75.09-15.3 75.09-11.55ZM63.75-20.45L63.75-20.45Q60.4-20.45 58.42-18.07 56.45-15.7 56.45-11.55L56.45-11.55Q56.45-7.35 58.37-5 60.3-2.65 63.75-2.65L63.75-2.65Q67.15-2.65 69.07-5.03 71-7.4 71-11.55L71-11.55Q71-15.7 69.07-18.07 67.15-20.45 63.75-20.45ZM91.14 0.65L91.14 0.65Q94.44 0.65 96.99-0.7 99.54-2.05 100.97-4.78 102.39-7.5 102.39-11.6L102.39-11.6Q102.39-15.85 100.82-18.53 99.24-21.2 96.57-22.48 93.89-23.75 90.59-23.75L90.59-23.75Q88.19-23.75 86.32-23.13 84.44-22.5 83.09-21.75L83.09-21.75Q81.99-21.1 81.64-20.5 81.29-19.9 81.29-18.9L81.29-18.9 81.29-2.4 85.29-2.4 85.29-19Q86.29-19.55 87.54-20 88.79-20.45 90.59-20.45L90.59-20.45Q92.64-20.45 94.42-19.6 96.19-18.75 97.27-16.82 98.34-14.9 98.34-11.6L98.34-11.6Q98.34-6.9 96.22-4.78 94.09-2.65 90.59-2.65L90.59-2.65Q88.44-2.65 86.92-3.38 85.39-4.1 84.39-5.05L84.39-5.05 84.39-1.35Q85.24-0.6 87.12 0.03 88.99 0.65 91.14 0.65ZM85.29-3.75L81.29-3.85 81.29 7.5Q81.29 8.45 81.84 8.9 82.39 9.35 83.44 9.35L83.44 9.35Q84.04 9.35 84.54 9.22 85.04 9.1 85.29 9L85.29 9 85.29-3.75ZM129.29-20.4L129.29-20.4Q125.89-20.4 123.64-18.1 121.39-15.8 121.39-11.5L121.39-11.5Q121.39-7.25 123.56-4.95 125.74-2.65 129.29-2.65L129.29-2.65Q131.39-2.65 132.79-3.23 134.19-3.8 135.29-4.55L135.29-4.55Q135.84-4.25 136.19-3.8 136.54-3.35 136.54-2.7L136.54-2.7Q136.54-1.3 134.46-0.33 132.39 0.65 129.29 0.65L129.29 0.65Q125.84 0.65 123.11-0.68 120.39-2 118.84-4.7 117.29-7.4 117.29-11.5L117.29-11.5Q117.29-15.55 118.89-18.28 120.49-21 123.21-22.38 125.94-23.75 129.19-23.75L129.19-23.75Q132.29-23.75 134.31-22.7 136.34-21.65 136.34-20.3L136.34-20.3Q136.34-19.7 135.99-19.25 135.64-18.8 135.09-18.55L135.09-18.55Q133.99-19.3 132.66-19.85 131.34-20.4 129.29-20.4ZM150.74-2.6L150.74-2.6Q152.84-2.6 154.21-3.03 155.59-3.45 156.19-3.85L156.19-3.85 156.19-11.1 149.99-10.45Q147.39-10.25 146.14-9.3 144.89-8.35 144.89-6.55L144.89-6.55Q144.89-4.7 146.36-3.65 147.84-2.6 150.74-2.6ZM150.69-23.75L150.69-23.75Q155.04-23.75 157.59-21.8 160.14-19.85 160.14-15.65L160.14-15.65 160.14-3.8Q160.14-2.7 159.71-2.13 159.29-1.55 158.44-1.05L158.44-1.05Q157.24-0.4 155.24 0.15 153.24 0.7 150.74 0.7L150.74 0.7Q146.04 0.7 143.46-1.15 140.89-3 140.89-6.5L140.89-6.5Q140.89-9.75 143.06-11.48 145.24-13.2 149.09-13.55L149.09-13.55 156.19-14.25 156.19-15.65Q156.19-18.15 154.69-19.3 153.19-20.45 150.64-20.45L150.64-20.45Q148.59-20.45 146.71-19.85 144.84-19.25 143.39-18.5L143.39-18.5Q142.99-18.85 142.66-19.33 142.34-19.8 142.34-20.3L142.34-20.3Q142.34-21.6 143.79-22.3L143.79-22.3Q145.14-23 146.91-23.38 148.69-23.75 150.69-23.75ZM171.43-18.8L171.43-10.9 167.43-10.9 167.43-18.5Q167.43-19.65 167.86-20.33 168.28-21 169.28-21.65L169.28-21.65Q170.58-22.5 172.83-23.13 175.08-23.75 177.83-23.75L177.83-23.75Q181.83-23.75 181.83-21.75L181.83-21.75Q181.83-21.25 181.68-20.83 181.53-20.4 181.28-20.1L181.28-20.1Q180.78-20.2 179.98-20.3 179.18-20.4 178.38-20.4L178.38-20.4Q176.08-20.4 174.33-19.93 172.58-19.45 171.43-18.8L171.43-18.8ZM167.43-13.2L171.43-12.6 171.43-0.1Q171.18 0 170.68 0.13 170.18 0.25 169.58 0.25L169.58 0.25Q168.53 0.25 167.98-0.18 167.43-0.6 167.43-1.55L167.43-1.55 167.43-13.2ZM186.58-13.2L190.58-13.2 190.58-6.3Q190.58-4.3 191.73-3.48 192.88-2.65 194.88-2.65L194.88-2.65Q195.73-2.65 196.78-2.95 197.83-3.25 198.53-3.65L198.53-3.65Q198.83-3.35 199.08-2.9 199.33-2.45 199.33-1.85L199.33-1.85Q199.33-0.75 198.03-0.05 196.73 0.65 194.43 0.65L194.43 0.65Q190.93 0.65 188.75-0.9 186.58-2.45 186.58-6.05L186.58-6.05 186.58-13.2ZM188.63-19.3L188.63-22.6 198.78-22.6Q198.93-22.4 199.08-21.95 199.23-21.5 199.23-21L199.23-21Q199.23-20.2 198.83-19.75 198.43-19.3 197.73-19.3L197.73-19.3 188.63-19.3ZM190.58-11.7L186.58-11.7 186.58-29.8Q186.83-29.9 187.35-30.03 187.88-30.15 188.48-30.15L188.48-30.15Q189.53-30.15 190.06-29.73 190.58-29.3 190.58-28.35L190.58-28.35 190.58-11.7Z" opacity="1" transform="matrix(1,0,0,1,0,0)" fill="#000000" class="slogan-text-1" data-fill-palette-color="secondary" id="text-1"></path></svg></g></svg></g></svg></g></svg></g><g><svg viewBox="0 0 226.15629501409956 226.15629501409956" height="226.15629501409956" width="226.15629501409956"><g><svg></svg></g><g id="icon-0"><svg viewBox="0 0 226.15629501409956 226.15629501409956" height="226.15629501409956" width="226.15629501409956"><g><path d="M0 113.078c0-62.451 50.627-113.078 113.078-113.078 62.451 0 113.078 50.627 113.078 113.078 0 62.451-50.627 113.078-113.078 113.078-62.451 0-113.078-50.627-113.078-113.078zM113.078 220.18c59.151 0 107.102-47.951 107.102-107.102 0-59.151-47.951-107.102-107.102-107.102-59.151 0-107.102 47.951-107.102 107.102 0 59.151 47.951 107.102 107.102 107.102z" data-fill-palette-color="accent" fill="#000000" stroke="transparent"></path></g><g transform="matrix(1,0,0,1,48.718566282829954,51.434268160503166)"><svg viewBox="0 0 128.71916244843965 123.28775869309322" height="123.28775869309322" width="128.71916244843965"><g><svg xmlns="http://www.w3.org/2000/svg" xmlns:xlink="http://www.w3.org/1999/xlink" version="1.1" x="0" y="0" viewBox="0.572 1.603 48.855 46.793525815270584" enable-background="new 0 0 50 50" xml:space="preserve" height="123.28775869309322" width="128.71916244843965" class="icon-dxe-0" data-fill-palette-color="accent" id="dxe-0"><g fill="#ff7500" data-fill-palette-color="accent"><g fill="#ff7500" data-fill-palette-color="accent"><g fill="#ff7500" data-fill-palette-color="accent"><line fill="#000000" x1="42.187" y1="30.881" x2="16.181" y2="39.004" data-fill-palette-color="accent"></line><polygon fill="#000000" points="41.73,29.426 15.726,37.543 16.637,40.461 42.643,32.338    " data-fill-palette-color="accent"></polygon></g><g fill="#ff7500" data-fill-palette-color="accent"><path fill="#000000" d="M18.572 42.535A2.23 2.23 0 0 1 18.059 44.199 2.25 2.25 0 0 1 16.52 45.013 2.277 2.277 0 0 1 14.551 41.29 2.25 2.25 0 0 1 16.093 40.477 2.24 2.24 0 0 1 17.759 40.991C18.229 41.379 18.515 41.926 18.572 42.535M15.808 37.434A5.32 5.32 0 0 0 12.199 39.344 5.3 5.3 0 0 0 10.998 43.244 5.34 5.34 0 0 0 16.805 48.055 5.28 5.28 0 0 0 20.41 46.147 5.28 5.28 0 0 0 21.614 42.249 5.3 5.3 0 0 0 19.707 38.642 5.3 5.3 0 0 0 15.808 37.434" data-fill-palette-color="accent"></path></g><g fill="#ff7500" data-fill-palette-color="accent"><line fill="#000000" x1="13.436" y1="30.992" x2="39.554" y2="39.439" data-fill-palette-color="accent"></line><rect x="12.773" y="33.689" transform="matrix(-0.9514 -0.3078 0.3078 -0.9514 40.8641 76.8801)" fill="#000000" width="27.446" height="3.055" data-fill-palette-color="accent"></rect></g><g fill="#ff7500" data-fill-palette-color="accent"><path fill="#000000" d="M32.707 42.547A5.3 5.3 0 0 0 33.893 46.449 5.3 5.3 0 0 0 37.492 48.371 5.337 5.337 0 0 0 43.32 43.59 5.343 5.343 0 0 0 38.534 37.76 5.3 5.3 0 0 0 34.631 38.948 5.28 5.28 0 0 0 32.707 42.547M38.236 40.795A2.287 2.287 0 0 1 40.28 43.289 2.29 2.29 0 0 1 37.789 45.338 2.3 2.3 0 0 1 36.251 44.514 2.27 2.27 0 0 1 35.746 42.84 2.27 2.27 0 0 1 36.568 41.303 2.27 2.27 0 0 1 38.236 40.795" data-fill-palette-color="accent"></path></g><g fill="#ff7500" data-fill-palette-color="accent"><polygon fill="#000000" points="11.115,19.867 5.497,2.681 5.155,1.64 4.058,1.63 0.6,1.603 0.572,4.656 4.033,4.685 2.594,3.63      8.214,20.812    " data-fill-palette-color="accent"></polygon></g><g fill="#ff7500" data-fill-palette-color="accent"><polygon fill="#000000" points="17.158,26.744 37.898,26.744 40.767,19.382 15.07,19.474    " data-fill-palette-color="accent"></polygon><path fill="#000000" d="M5.756 13.544L12.45 32.75 42.405 32.527 49.427 13.544zM40.365 28.826L39.986 29.799H14.86L14.542 28.695 11.579 18.38 11.021 16.441 13.042 16.433 42.996 16.324 45.239 16.314 44.424 18.402z" data-fill-palette-color="accent"></path></g></g><g fill="#ff7500" data-fill-palette-color="accent"><path fill-rule="evenodd" clip-rule="evenodd" fill="#000000" d="M32.577 11.763H36.445L32.577 8.57 28.711 5.379 24.847 8.57 20.982 11.763z" data-fill-palette-color="accent"></path></g></g></svg></g></svg></g></svg></g></svg></g></svg></g><defs></defs></svg><rect width="395.52" height="136.9893060676385" fill="none" stroke="none" visibility="hidden"></rect></g></svg></g></svg>